<?xml version="1.0" standalone="no"?>
<!DOCTYPE svg PUBLIC "-//W3C//DTD SVG 20010904//EN"
 "http://www.w3.org/TR/2001/REC-SVG-20010904/DTD/svg10.dtd">
<svg version="1.0" xmlns="http://www.w3.org/2000/svg"
 width="512.000000pt" height="512.000000pt" viewBox="0 0 512.000000 512.000000"
 preserveAspectRatio="xMidYMid meet">

<g transform="translate(0.000000,512.000000) scale(0.100000,-0.100000)"
fill="#000000" stroke="none">
<path d="M1173 4786 c-57 -18 -105 -49 -147 -96 -40 -45 -608 -1170 -656
-1299 -84 -229 -58 -491 71 -708 19 -31 71 -95 116 -143 l83 -87 2 -949 3
-949 23 -45 c35 -72 75 -114 144 -151 l63 -34 967 0 968 0 32 33 c28 28 33 39
33 82 0 43 -5 54 -33 82 l-32 33 -946 5 -946 5 -19 24 c-18 22 -19 51 -19 880
l0 857 73 -19 c106 -28 295 -28 402 0 102 28 183 64 265 118 62 41 170 146
218 210 19 26 23 28 32 14 58 -97 197 -217 324 -279 125 -62 218 -83 366 -83
197 0 355 53 508 170 63 48 152 142 182 191 9 15 13 13 32 -13 48 -65 153
-166 219 -210 78 -52 173 -94 275 -121 121 -31 347 -21 456 21 12 5 18 2 18
-7 0 -8 14 -27 31 -44 25 -24 39 -29 79 -29 43 0 54 5 82 32 30 30 33 39 36
108 l4 75 68 68 c118 118 198 264 231 425 32 157 21 302 -35 449 -14 37 -159
333 -321 658 -322 644 -335 665 -438 711 l-52 24 -1360 2 c-1099 1 -1368 -1
-1402 -11z m2984 -796 c158 -300 304 -590 327 -645 40 -99 41 -102 41 -225 0
-137 -13 -191 -66 -286 -62 -110 -183 -212 -304 -256 -82 -29 -237 -36 -326
-14 -142 36 -265 123 -320 227 -55 103 -133 149 -252 149 -119 0 -195 -48
-252 -159 -39 -78 -134 -152 -252 -198 -61 -24 -82 -27 -193 -28 -112 0 -133
3 -200 28 -86 31 -204 115 -235 165 -93 153 -135 185 -251 190 -41 3 -88 -1
-110 -8 -49 -17 -120 -83 -149 -141 -30 -57 -113 -135 -191 -176 -184 -98
-421 -83 -591 36 -233 164 -310 442 -195 708 31 73 335 659 559 1081 l55 102
1310 -2 1310 -3 285 -545z"/>
<path d="M2515 4311 c-11 -5 -31 -21 -45 -36 -25 -26 -25 -27 -28 -250 l-3
-224 -224 -3 -225 -3 -32 -33 c-28 -28 -33 -39 -33 -82 0 -43 5 -54 33 -82
l32 -33 225 -3 224 -3 3 -224 3 -225 33 -32 c28 -28 39 -33 82 -33 43 0 54 5
82 33 l33 32 3 225 3 224 224 3 225 3 32 33 c28 28 33 39 33 82 0 43 -5 54
-33 82 l-32 33 -225 3 -224 3 -3 224 -3 225 -31 31 c-33 33 -92 46 -129 30z"/>
<path d="M3722 2230 c-217 -31 -407 -124 -559 -276 -372 -372 -372 -976 2
-1349 128 -129 277 -211 462 -257 110 -27 301 -29 410 -4 371 82 657 368 739
739 22 96 22 298 0 394 -71 321 -290 578 -591 694 -44 17 -109 37 -145 45 -87
18 -240 25 -318 14z m364 -188 c129 -43 225 -103 319 -197 94 -94 153 -190
198 -319 30 -86 31 -99 32 -241 0 -130 -3 -160 -23 -225 -87 -276 -276 -465
-552 -552 -65 -20 -95 -23 -225 -23 -142 1 -155 2 -241 32 -129 45 -225 104
-319 198 -94 94 -153 189 -198 319 -30 87 -32 98 -32 246 0 149 2 158 33 250
95 275 313 470 597 536 40 9 104 13 190 10 114 -3 141 -7 221 -34z"/>
<path d="M3465 1735 l-25 -24 0 -426 0 -427 29 -29 c37 -37 65 -37 102 0 l29
29 0 427 0 426 -25 24 c-15 16 -36 25 -55 25 -19 0 -40 -9 -55 -25z"/>
<path d="M3785 1335 l-25 -24 0 -226 0 -227 29 -29 c16 -16 39 -29 51 -29 12
0 35 13 51 29 l29 29 0 227 0 226 -25 24 c-15 16 -36 25 -55 25 -19 0 -40 -9
-55 -25z"/>
<path d="M4105 1095 c-23 -23 -25 -31 -25 -130 0 -104 1 -107 29 -136 16 -16
39 -29 51 -29 12 0 35 13 51 29 28 29 29 32 29 136 0 99 -2 107 -25 130 -15
16 -36 25 -55 25 -19 0 -40 -9 -55 -25z"/>
</g>
</svg>
